<svg width="19" height="21" viewBox="0 0 19 21" fill="none" xmlns="http://www.w3.org/2000/svg">
<path d="M15.625 20.8333C14.7569 20.8333 14.0191 20.5295 13.4115 19.9219C12.8038 19.3142 12.5 18.5764 12.5 17.7083C12.5 17.5868 12.5087 17.4609 12.526 17.3307C12.5434 17.2005 12.5694 17.0833 12.6042 16.9792L5.26042 12.7083C4.96528 12.9688 4.63542 13.1727 4.27083 13.3203C3.90625 13.4679 3.52431 13.5417 3.125 13.5417C2.25694 13.5417 1.5191 13.2378 0.911458 12.6302C0.303819 12.0226 0 11.2847 0 10.4167C0 9.54861 0.303819 8.81076 0.911458 8.20313C1.5191 7.59549 2.25694 7.29167 3.125 7.29167C3.52431 7.29167 3.90625 7.36545 4.27083 7.51302C4.63542 7.66059 4.96528 7.86458 5.26042 8.125L12.6042 3.85417C12.5694 3.75 12.5434 3.63281 12.526 3.5026C12.5087 3.3724 12.5 3.24653 12.5 3.125C12.5 2.25694 12.8038 1.5191 13.4115 0.911458C14.0191 0.303819 14.7569 0 15.625 0C16.4931 0 17.2309 0.303819 17.8385 0.911458C18.4462 1.5191 18.75 2.25694 18.75 3.125C18.75 3.99306 18.4462 4.7309 17.8385 5.33854C17.2309 5.94618 16.4931 6.25 15.625 6.25C15.2257 6.25 14.8438 6.17622 14.4792 6.02865C14.1146 5.88108 13.7847 5.67708 13.4896 5.41667L6.14583 9.6875C6.18056 9.79167 6.2066 9.90885 6.22396 10.0391C6.24132 10.1693 6.25 10.2951 6.25 10.4167C6.25 10.5382 6.24132 10.6641 6.22396 10.7943C6.2066 10.9245 6.18056 11.0417 6.14583 11.1458L13.4896 15.4167C13.7847 15.1563 14.1146 14.9523 14.4792 14.8047C14.8438 14.6571 15.2257 14.5833 15.625 14.5833C16.4931 14.5833 17.2309 14.8872 17.8385 15.4948C18.4462 16.1024 18.75 16.8403 18.75 17.7083C18.75 18.5764 18.4462 19.3142 17.8385 19.9219C17.2309 20.5295 16.4931 20.8333 15.625 20.8333ZM15.625 4.16667C15.9201 4.16667 16.1675 4.06684 16.3672 3.86719C16.5668 3.66754 16.6667 3.42014 16.6667 3.125C16.6667 2.82986 16.5668 2.58247 16.3672 2.38281C16.1675 2.18316 15.9201 2.08333 15.625 2.08333C15.3299 2.08333 15.0825 2.18316 14.8828 2.38281C14.6832 2.58247 14.5833 2.82986 14.5833 3.125C14.5833 3.42014 14.6832 3.66754 14.8828 3.86719C15.0825 4.06684 15.3299 4.16667 15.625 4.16667ZM3.125 11.4583C3.42014 11.4583 3.66753 11.3585 3.86719 11.1589C4.06684 10.9592 4.16667 10.7118 4.16667 10.4167C4.16667 10.1215 4.06684 9.87413 3.86719 9.67448C3.66753 9.47483 3.42014 9.375 3.125 9.375C2.82986 9.375 2.58247 9.47483 2.38281 9.67448C2.18316 9.87413 2.08333 10.1215 2.08333 10.4167C2.08333 10.7118 2.18316 10.9592 2.38281 11.1589C2.58247 11.3585 2.82986 11.4583 3.125 11.4583ZM15.625 18.75C15.9201 18.75 16.1675 18.6502 16.3672 18.4505C16.5668 18.2509 16.6667 18.0035 16.6667 17.7083C16.6667 17.4132 16.5668 17.1658 16.3672 16.9661C16.1675 16.7665 15.9201 16.6667 15.625 16.6667C15.3299 16.6667 15.0825 16.7665 14.8828 16.9661C14.6832 17.1658 14.5833 17.4132 14.5833 17.7083C14.5833 18.0035 14.6832 18.2509 14.8828 18.4505C15.0825 18.6502 15.3299 18.75 15.625 18.75Z" fill="#1D1B20"/>
</svg>
